PathFileType	4	(X/Y/Z)	C:\Users\86182\Documents\cortex\Trimmed_M1_H14.trc
DataRate	CameraRate	NumFrames	NumMarkers	Units	OrigDataRate	OrigDataStartFrame	OrigNumFrames
100.00	100.00	       99	2	mm	100.00	181	       901
Frame#	Time	gripper			box			
		X1	Y1	Z1	X2	Y2	Z2	

181	1.800	227.86702	206.16206	208.81030	233.88828	205.38089	59.37173	
182	1.810	227.49873	206.17093	209.36047	234.49419	205.51413	59.77051	
183	1.820	228.12636	206.14290	209.69113	234.18900	205.47684	60.16182	
184	1.830	227.99194	206.16560	210.07835	234.11914	205.33943	60.60184	
185	1.840	227.84230	206.23912	210.46312	234.36487	205.38231	60.88418	
186	1.850	227.79390	206.19984	210.90521	233.85623	205.47821	61.39038	
187	1.860	227.56371	206.07088	211.48961	233.81592	205.43285	61.55855	
188	1.870	227.80180	206.16724	211.83502	234.09937	205.43948	61.67503	
189	1.880	228.10042	206.16742	212.13681	234.12981	205.32889	62.30847	
190	1.890	227.86597	206.15785	212.91321	234.05843	205.44000	62.66747	
191	1.900	228.04703	206.22737	213.27525	234.54454	205.46259	62.99268	
192	1.910	227.93695	206.16486	213.62439	234.66696	205.49188	63.09072	
193	1.920	228.15143	206.24680	214.04559	234.13850	205.57011	63.65115	
194	1.930	227.94124	206.12935	214.62543	233.95985	205.43173	64.04702	
195	1.940	228.10287	206.18922	215.04819	234.01279	205.58217	64.81029	
196	1.950	228.28279	206.26047	215.36176	234.03651	205.57338	65.10140	
197	1.960	228.16115	206.17850	216.00769	234.55185	205.59181	65.33150	
198	1.970	228.05594	206.17104	216.28224	234.27075	205.45793	65.81596	
199	1.980	227.81696	206.24602	216.72585	234.23090	205.53082	66.23574	
200	1.990	228.08965	206.35861	217.10168	234.42953	205.56876	66.45663	
201	2.000	228.13525	206.25487	217.64978	234.54729	205.57031	66.64243	
202	2.010	227.90186	206.19476	218.05438	233.97699	205.48216	67.64520	
203	2.020	228.04561	206.29282	218.32852	234.35416	205.54964	67.81120	
204	2.030	227.72491	206.31110	219.01443	234.56006	205.51759	68.26279	
205	2.040	227.57359	206.24690	219.59966	234.40788	205.56850	68.56153	
206	2.050	227.71133	206.24146	219.85970	234.23695	205.42499	69.01048	
207	2.060	228.12502	206.41455	220.07788	234.28824	205.61928	69.53785	
208	2.070	228.26451	206.30144	220.76355	234.38152	205.58699	70.08463	
209	2.080	227.69327	206.29149	221.31653	233.74879	205.73827	70.63197	
210	2.090	227.38542	206.40356	221.70355	233.92516	205.56606	71.02686	
211	2.100	227.51465	206.28079	222.14572	233.96089	205.70580	71.25833	
212	2.110	227.84314	206.23216	222.55397	233.98395	205.76729	71.68677	
213	2.120	227.52324	206.24863	223.12379	233.91263	205.73524	72.17537	
214	2.130	226.93024	206.36671	223.55556	233.46655	205.70877	72.96717	
215	2.140	227.10974	206.26047	224.15250	233.41776	205.66019	73.27289	
216	2.150	227.22517	206.22395	224.38512	232.94748	205.62810	73.83392	
217	2.160	227.37108	206.21371	224.66760	232.97336	205.62782	74.22694	
218	2.170	227.22061	206.00404	225.21323	233.37827	205.59924	74.42163	
219	2.180	227.07608	206.10661	225.93962	232.99263	205.60167	74.89114	
220	2.190	226.78723	206.17102	226.24742	232.86615	205.60524	75.38505	
221	2.200	227.09512	206.16722	226.43472	232.42574	205.57390	76.30849	
222	2.210	226.77277	206.10747	227.11305	232.44923	205.47763	76.64742	
223	2.220	227.27470	206.10164	227.42078	233.13272	205.63408	76.67676	
224	2.230	227.30939	206.09767	227.91537	232.71692	205.56934	77.33527	
225	2.240	226.78423	206.11192	228.46997	232.91653	205.57043	77.79141	
226	2.250	226.86752	206.13626	229.04416	232.64548	205.64247	78.51751	
227	2.260	226.96016	206.15913	229.37500	232.99075	205.76505	78.59185	
228	2.270	227.33525	206.04765	229.57188	232.75740	205.64410	79.30582	
229	2.280	227.19492	206.22220	230.52669	233.14441	205.81039	79.61974	
230	2.290	227.24692	206.31332	230.76839	232.24271	205.88718	80.44731	
231	2.300	227.02837	206.29567	231.12482	232.29044	206.01559	80.90194	
232	2.310	226.94730	206.23843	231.67490	232.17430	205.81406	81.39531	
233	2.320	226.97594	206.35751	232.17160	232.06662	205.91092	81.85130	
234	2.330	227.27029	206.24321	232.60973	232.16077	205.89030	82.20299	
235	2.340	226.67841	206.12511	233.16806	232.28067	205.92712	82.44980	
236	2.350	226.66808	206.03825	233.48311	232.22330	205.85889	82.95090	
237	2.360	227.03806	206.27005	233.80626	232.11595	205.84146	83.62947	
238	2.370	226.96194	206.28853	234.08214	231.65559	205.70528	84.20163	
239	2.380	226.43184	206.12447	234.67667	231.53255	205.61346	84.46864	
240	2.390	226.98729	206.11639	235.24783	231.48520	205.71426	84.70587	
241	2.400	227.10417	206.23167	235.53648	231.60649	205.69263	85.29727	
242	2.410	227.09094	206.14459	235.83110	231.77948	205.57468	85.70616	
243	2.420	226.82564	206.10703	236.34383	231.75307	205.60970	86.24999	
244	2.430	226.64545	206.19473	236.78598	231.84431	205.72670	86.59985	
245	2.440	227.03423	206.17291	237.39539	231.92587	205.69827	86.97987	
246	2.450	227.14973	206.16667	237.72870	231.43773	205.59697	87.72198	
247	2.460	227.21744	206.11458	238.13416	231.63263	205.68701	87.90729	
248	2.470	226.98897	206.20677	238.68730	232.21126	205.71838	88.48444	
249	2.480	226.81429	206.21278	239.09590	231.89494	205.66862	89.14828	
250	2.490	227.19662	206.20546	239.59334	231.85466	205.61737	89.37152	
251	2.500	227.42447	206.20576	240.00220	231.59799	205.76910	89.70895	
252	2.510	227.45633	206.14148	240.24284	231.99007	205.75745	90.15348	
253	2.520	227.06941	206.20732	240.70715	231.69441	205.60800	90.62047	
254	2.530	226.95911	206.26488	241.21042	232.03937	205.57347	91.07065	
255	2.540	226.67654	206.19768	241.91684	232.02811	205.69955	91.33537	
256	2.550	226.67551	206.21304	242.19827	232.06345	205.66821	91.62420	
257	2.560	227.54378	206.17191	242.29132	231.46146	205.65240	92.56097	
258	2.570	227.43924	206.27635	242.76180	231.79037	205.61241	92.62064	
259	2.580	226.79082	206.22493	243.35770	231.88055	205.66151	92.79607	
260	2.590	226.64204	206.24283	243.77753	232.02881	205.70798	93.25899	
261	2.600	227.19043	206.31328	244.14403	232.04971	205.59857	94.16956	
262	2.610	226.99268	206.22221	244.81296	232.10945	205.65028	94.34168	
263	2.620	227.47777	206.14630	244.96007	231.74828	205.75894	94.64589	
264	2.630	227.06975	206.27007	245.42422	232.04582	205.70570	94.98158	
265	2.640	226.90123	206.24261	246.02135	232.20340	205.67577	95.58018	
266	2.650	227.08159	206.26157	246.48944	231.94806	205.80270	96.29887	
267	2.660	226.89133	206.30554	246.90999	232.46120	205.74261	96.23151	
268	2.670	227.41946	206.34317	247.25685	231.81758	205.71170	97.15950	
269	2.680	227.31607	206.29413	247.79128	232.01158	205.73549	97.52017	
270	2.690	227.18729	206.31462	248.15344	232.30367	205.80174	97.66349	
271	2.700	227.04477	206.42505	248.67601	232.15732	205.84111	98.14442	
272	2.710	227.10258	206.31435	249.20384	231.68633	205.80878	99.00228	
273	2.720	227.11337	206.31799	249.59587	232.17398	205.81152	99.45718	
274	2.730	226.98463	206.40761	249.99635	232.35951	205.87912	99.50444	
275	2.740	226.95253	206.42169	250.47693	232.13834	205.90642	99.68233	
276	2.750	227.13066	206.37807	250.93317	231.81351	205.79556	100.41241	
277	2.760	227.15482	206.38928	251.22467	232.28653	205.76254	101.01899	
278	2.770	227.44533	206.38670	251.36897	232.13571	205.94218	101.32053	
279	2.780	226.99496	206.40211	252.22372	232.39160	205.88258	101.56650	
